<svg width="20" height="20" viewBox="0 0 20 20" fill="none" xmlns="http://www.w3.org/2000/svg">
<g clip-path="url(#clip0_2_897)">
<path d="M17.369 14.2874C17.0918 14.9279 16.7636 15.5175 16.3834 16.0596C15.8651 16.7986 15.4407 17.3101 15.1137 17.5941C14.6067 18.0603 14.0635 18.2991 13.4818 18.3127C13.0642 18.3127 12.5607 18.1939 11.9745 17.9528C11.3863 17.7129 10.8459 17.5941 10.3517 17.5941C9.83338 17.5941 9.27751 17.7129 8.68294 17.9528C8.08746 18.1939 7.60776 18.3195 7.24099 18.3319C6.6832 18.3557 6.12722 18.1101 5.57226 17.5941C5.21805 17.2852 4.77501 16.7556 4.24426 16.0053C3.67482 15.2041 3.20665 14.275 2.83989 13.2157C2.44709 12.0716 2.25018 10.9638 2.25018 9.89117C2.25018 8.66254 2.51567 7.60286 3.04743 6.71485C3.46535 6.00157 4.02133 5.43891 4.71718 5.02586C5.41303 4.6128 6.1649 4.40232 6.9746 4.38885C7.41764 4.38885 7.99863 4.52589 8.72062 4.79523C9.44058 5.06546 9.90286 5.20251 10.1055 5.20251C10.2571 5.20251 10.7706 5.04226 11.6412 4.7228C12.4645 4.42653 13.1593 4.30386 13.7285 4.35218C15.271 4.47667 16.4298 5.0847 17.2004 6.18014C15.8209 7.01598 15.1386 8.18668 15.1521 9.68849C15.1646 10.8583 15.589 11.8317 16.423 12.6046C16.8009 12.9634 17.2231 13.2406 17.6927 13.4375C17.5908 13.7329 17.4833 14.0158 17.369 14.2874ZM13.8315 0.366954C13.8315 1.28383 13.4965 2.13991 12.8289 2.9323C12.0231 3.87429 11.0485 4.41861 9.99169 4.33272C9.97823 4.22272 9.97042 4.10695 9.97042 3.9853C9.97042 3.1051 10.3536 2.16311 11.0341 1.39291C11.3738 1.00294 11.8058 0.67869 12.3298 0.420028C12.8526 0.165225 13.3472 0.0243136 13.8123 0.000183105C13.8258 0.122755 13.8315 0.245335 13.8315 0.366942V0.366954Z" fill="black"/>
</g>
<defs>
<clipPath id="clip0_2_897">
<rect width="20" height="20" fill="white"/>
</clipPath>
</defs>
</svg>
