<svg width="20" height="20" viewBox="0 0 20 20" fill="none" xmlns="http://www.w3.org/2000/svg">
<path opacity="0.987" fill-rule="evenodd" clip-rule="evenodd" d="M9.01125 1.32624C9.9175 1.22499 10.4537 1.22499 11.4275 1.32624C13.1512 1.58136 14.749 2.3781 15.99 3.60124C15.1514 4.39391 14.3238 5.19816 13.5075 6.01374C11.9442 4.68874 10.1992 4.38291 8.2725 5.09624C6.85916 5.74624 5.875 6.79958 5.32 8.25624C4.41305 7.58103 3.51791 6.89009 2.635 6.18374C2.57364 6.15144 2.50356 6.13962 2.435 6.14999C3.8375 3.44583 6.02916 1.83749 9.01 1.32499" fill="#F44336"/>
<path opacity="0.997" fill-rule="evenodd" clip-rule="evenodd" d="M2.43251 6.14998C2.50334 6.13915 2.57043 6.1504 2.63376 6.18373C3.51668 6.89008 4.41181 7.58102 5.31876 8.25623C5.17604 8.82381 5.08608 9.40335 5.05001 9.98748C5.08084 10.5525 5.17043 11.1071 5.31876 11.6512L2.50001 13.895C1.27251 11.33 1.25001 8.74832 2.43251 6.14998Z" fill="#FFC107"/>
<path opacity="0.999" fill-rule="evenodd" clip-rule="evenodd" d="M15.8563 16.6125C14.9786 15.8385 14.0598 15.1124 13.1038 14.4375C14.0621 13.7608 14.6438 12.8325 14.8488 11.6525H10.1525V8.39123C12.8609 8.36873 15.5679 8.39165 18.2738 8.45998C18.7871 11.2475 18.1942 13.7608 16.495 16C16.293 16.2148 16.079 16.4192 15.8563 16.6125Z" fill="#448AFF"/>
<path opacity="0.993" fill-rule="evenodd" clip-rule="evenodd" d="M5.31875 11.6525C6.34375 14.2 8.22292 15.3891 10.9563 15.22C11.7235 15.1311 12.4592 14.8631 13.1038 14.4375C14.0604 15.1141 14.9779 15.8391 15.8563 16.6125C14.4646 17.863 12.6901 18.6051 10.8225 18.7175C10.3982 18.7514 9.97182 18.7514 9.5475 18.7175C6.36583 18.3425 4.01667 16.735 2.5 13.895L5.31875 11.6525Z" fill="#43A047"/>
</svg>
