<svg width="40" height="40" viewBox="0 0 40 40" fill="none" xmlns="http://www.w3.org/2000/svg">
<path d="M35 32.0105C34.9973 32.4044 34.8396 32.7815 34.5612 33.0602C34.2828 33.3389 33.9059 33.4969 33.512 33.5H6.488C6.09322 33.4996 5.71475 33.3425 5.43573 33.0632C5.15672 32.7839 5 32.4053 5 32.0105V30.5H32V12.95L20 23.75L5 10.25V8C5 7.60218 5.15804 7.22064 5.43934 6.93934C5.72064 6.65804 6.10218 6.5 6.5 6.5H33.5C33.8978 6.5 34.2794 6.65804 34.5607 6.93934C34.842 7.22064 35 7.60218 35 8V32.0105ZM8.651 9.5L20 19.715L31.349 9.5H8.651ZM2 24.5H14V27.5H2V24.5ZM2 17H9.5V20H2V17Z" fill="#6475E9"/>
</svg>
