<svg width="20" height="20" viewBox="0 0 20 20" fill="none" xmlns="http://www.w3.org/2000/svg">
<path d="M10.0008 4.39673C11.7625 2.81498 14.485 2.86748 16.1823 4.56774C17.8788 6.26874 17.9373 8.97774 16.3593 10.7447L9.99925 17.1137L3.64075 10.7447C2.06275 8.97774 2.122 6.26424 3.81775 4.56774C5.5165 2.86973 8.23375 2.81273 10.0008 4.39673V4.39673ZM15.1203 5.62749C13.9953 4.50099 12.1803 4.45524 11.0028 5.51274L10.0015 6.41124L8.9995 5.51349C7.81825 4.45449 6.007 4.50099 4.879 5.62899C3.7615 6.74649 3.70525 8.53524 4.735 9.71724L10 14.9905L15.265 9.71799C16.2955 8.53524 16.2393 6.74874 15.1203 5.62749V5.62749Z" fill="#6475E9"/>
</svg>
