<svg width="20" height="20" viewBox="0 0 20 20" fill="none" xmlns="http://www.w3.org/2000/svg">
<path d="M10 18.7959L5.227 14.0229C4.28301 13.0789 3.64014 11.8762 3.3797 10.5668C3.11925 9.25746 3.25293 7.90026 3.76382 6.66687C4.27472 5.43347 5.13988 4.37927 6.24991 3.63757C7.35994 2.89588 8.66498 2.5 10 2.5C11.335 2.5 12.6401 2.89588 13.7501 3.63757C14.8601 4.37927 15.7253 5.43347 16.2362 6.66687C16.7471 7.90026 16.8808 9.25746 16.6203 10.5668C16.3599 11.8762 15.717 13.0789 14.773 14.0229L10 18.7959ZM13.7125 12.9624C14.4467 12.2282 14.9466 11.2927 15.1492 10.2743C15.3517 9.25596 15.2477 8.20039 14.8503 7.24111C14.4529 6.28183 13.78 5.46192 12.9167 4.88507C12.0533 4.30821 11.0383 4.00032 10 4.00032C8.96167 4.00032 7.94666 4.30821 7.08332 4.88507C6.21997 5.46192 5.54706 6.28183 5.14969 7.24111C4.75231 8.20039 4.64831 9.25596 4.85084 10.2743C5.05337 11.2927 5.55333 12.2282 6.2875 12.9624L10 16.6749L13.7125 12.9624V12.9624ZM10 10.7499C9.60218 10.7499 9.22065 10.5919 8.93934 10.3106C8.65804 10.0293 8.5 9.64777 8.5 9.24994C8.5 8.85212 8.65804 8.47059 8.93934 8.18928C9.22065 7.90798 9.60218 7.74994 10 7.74994C10.3978 7.74994 10.7794 7.90798 11.0607 8.18928C11.342 8.47059 11.5 8.85212 11.5 9.24994C11.5 9.64777 11.342 10.0293 11.0607 10.3106C10.7794 10.5919 10.3978 10.7499 10 10.7499Z" fill="#6475E9"/>
</svg>
