<svg width="24" height="24" viewBox="0 0 24 24" fill="none" xmlns="http://www.w3.org/2000/svg">
<path d="M10.2 3.90039V5.70039H5.70002V18.3004H18.3V13.8004H20.1V19.2004C20.1 19.4391 20.0052 19.668 19.8364 19.8368C19.6676 20.0056 19.4387 20.1004 19.2 20.1004H4.80002C4.56133 20.1004 4.33241 20.0056 4.16363 19.8368C3.99485 19.668 3.90002 19.4391 3.90002 19.2004V4.80039C3.90002 4.5617 3.99485 4.33278 4.16363 4.16399C4.33241 3.99521 4.56133 3.90039 4.80002 3.90039H10.2ZM17.1363 8.13669L12 13.273L10.7274 12.0004L15.8637 6.86409L12.9 3.90039H20.1V11.1004L17.1363 8.13669Z" fill="#6475E9"/>
</svg>
